<!-- Coach AL — LEO (shown to male members). Artwork from Grant's "Coach AL - Alba & Leo" spec.
     Head crop viewBox 108 60 84 84, circular avatar treatment (gold ring) per the spec. -->
<svg xmlns="http://www.w3.org/2000/svg" viewBox="108 60 84 84" width="96" height="96" role="img" aria-label="Coach Leo">
  <defs>
    <linearGradient id="leoSkin" x1="0.2" y1="0" x2="0.7" y2="1"><stop offset="0" stop-color="#dc9c63"/><stop offset="1" stop-color="#b6773d"/></linearGradient>
    <linearGradient id="leoHair" x1="0.2" y1="0" x2="0.8" y2="1"><stop offset="0" stop-color="#3c3c48"/><stop offset="1" stop-color="#1d1d26"/></linearGradient>
    <linearGradient id="leoTop" x1="0.2" y1="0" x2="0.7" y2="1"><stop offset="0" stop-color="#ff937e"/><stop offset="1" stop-color="#eb5b45"/></linearGradient>
    <linearGradient id="leoGold" x1="0.2" y1="0" x2="0.7" y2="1"><stop offset="0" stop-color="#ffdc55"/><stop offset="1" stop-color="#f1b214"/></linearGradient>
    <clipPath id="leoClip"><circle cx="150" cy="102" r="42"/></clipPath>
  </defs>
  <circle cx="150" cy="102" r="42" fill="#0f5257"/>
  <g clip-path="url(#leoClip)">
    <path d="M124,148 C124,138 134,131 150,131 C166,131 176,138 176,148 L172,216 C166,224 158,228 150,228 C142,228 134,224 128,216 Z" fill="url(#leoTop)"/>
    <path d="M143,113 L157,113 L156,131 C154,135 146,135 144,131 Z" fill="url(#leoSkin)"/>
    <path d="M143,122 C147,128 153,128 157,122 L156,129 C153,133 147,133 144,129 Z" fill="rgba(0,0,0,0.12)"/>
    <circle cx="150" cy="88" r="31" fill="url(#leoSkin)"/>
    <circle cx="121" cy="92" r="6" fill="url(#leoSkin)"/>
    <circle cx="121" cy="92" r="2.6" fill="rgba(0,0,0,0.12)"/>
    <path d="M119,84 C114,52 132,42 150,42 C168,42 186,52 181,84 C179,74 175,74 171,68 C168,78 162,70 158,64 C155,76 148,68 145,64 C141,76 134,70 130,66 C126,74 121,74 119,84 Z" fill="url(#leoHair)"/>
    <path d="M117,80 Q150,70 183,80 L182,90 Q150,80 118,90 Z" fill="url(#leoGold)"/>
    <circle cx="132" cy="98" r="4.6" fill="rgba(220,80,60,0.20)"/>
    <circle cx="164" cy="98" r="4.6" fill="rgba(220,80,60,0.20)"/>
    <ellipse cx="139" cy="90" rx="3.1" ry="4.3" fill="#241f28"/>
    <ellipse cx="161" cy="90" rx="3.1" ry="4.3" fill="#241f28"/>
    <circle cx="140.2" cy="88.4" r="1.1" fill="#fff"/>
    <circle cx="162.2" cy="88.4" r="1.1" fill="#fff"/>
    <path d="M133,82 L145,84" stroke="#2b2028" stroke-width="2.4" fill="none" stroke-linecap="round"/>
    <path d="M167,82 L155,84" stroke="#2b2028" stroke-width="2.4" fill="none" stroke-linecap="round"/>
    <path d="M150,92 q2.5,4 -2,5" stroke="rgba(0,0,0,0.13)" stroke-width="1.5" fill="none" stroke-linecap="round"/>
    <path d="M142,103 Q150,106 158,103 Q150,112 142,103 Z" fill="#5a241f"/>
    <path d="M143.5,103.5 Q150,105.5 156.5,103.5 L155,105 Q150,106.5 145,105 Z" fill="#fff"/>
  </g>
  <circle cx="150" cy="102" r="40.4" fill="none" stroke="#FFCC00" stroke-width="3.2"/>
</svg>
